Motion_pu05
version=1
nRows=16
nColumns=43
inDegrees=yes
endheader
time	pelvis_tilt	pelvis_list	pelvis_rotation	pelvis_tx	pelvis_ty	pelvis_tz	hip_flexion_r	hip_adduction_r	hip_rotation_r	knee_angle_r	ankle_angle_r	subtalar_angle_r	mtp_angle_r	hip_flexion_l	hip_adduction_l	hip_rotation_l	knee_angle_l	ankle_angle_l	subtalar_angle_l	mtp_angle_l	lumbar_extension	lumbar_bending	lumbar_rotation	neck_flexion	neck_lateral_bending	neck_rotation	arm_flex_r	arm_add_r	arm_rot_r	elbow_flex_r	pro_sup_r	wrist_flex_r	wrist_dev_r	hand_finger_flex_r	arm_flex_l	arm_add_l	arm_rot_l	elbow_flex_l	pro_sup_l	wrist_flex_l	wrist_dev_l	hand_finger_flex_l
      1.74000000	      1.27672322	     -6.66851311	    -90.11238674	     -0.00145286	      1.36466715	      1.08797543	     16.55658989	     -7.74825978	    -11.37955875	    -34.95658448	    -10.55968363	    -12.64594099	     -5.74236619	     12.35398132	     -2.24023054	    -12.95124804	    -41.14064833	     17.82810772	      0.14096623	    -14.94597443	      8.91645924	     -1.97859410	      1.98718968	     -1.89811510	      0.11890329	      2.08356153	   -363.63298781	    -33.27953529	   -405.66607310	    146.06600351	    134.35382630	    -14.18526961	     -3.63781715	     89.01293745	      9.12873818	    -31.33908546	    -31.09490522	    149.51134543	    147.79020139	    -11.08240810	     13.93590683	     90.00021046
      1.74250000	      1.25620959	     -6.76245446	    -90.12481676	     -0.00142532	      1.36204530	      1.08770904	     16.56275655	     -7.76228460	    -11.43102706	    -35.12589095	    -10.64381423	    -12.68088336	     -5.75295901	     12.29806601	     -2.26410633	    -12.94597067	    -41.16334888	     17.70851353	      0.11658460	    -14.96674435	      9.02078117	     -1.96642366	      2.04811418	     -1.94888084	      0.12554604	      2.04319711	   -362.79551562	    -33.53235718	   -405.28184089	    145.72196121	    134.44505382	    -13.73054758	     -3.53985455	     88.88887217	     10.03126393	    -31.52182978	    -30.50229944	    148.93549785	    147.87419700	    -10.87156576	     13.97008354	     90.00021046
      1.74500000	      1.33127982	     -6.85870077	    -90.15204397	     -0.00151984	      1.35948892	      1.08763480	     16.53173599	     -7.85639774	    -11.49142456	    -35.20327260	    -10.97049808	    -13.10159771	     -5.81997751	     12.16769855	     -2.16492273	    -13.00622747	    -41.01993451	     17.18302095	     -0.26885177	    -15.10676893	      9.18672904	     -2.08621528	      2.47713761	     -2.57531801	      0.24248554	      1.66168964	   -362.43333224	    -33.63471323	   -405.97105992	    145.86325488	    135.30135786	     -9.82096697	     -2.29899351	     87.17082780	     11.41817907	    -31.66507187	    -29.20773510	    148.45877983	    149.02678613	     -9.58258213	     14.73799547	     90.00021046
      1.74750000	      1.30082952	     -6.97163634	    -90.12901444	     -0.00147906	      1.35683279	      1.08738462	     16.48205096	     -7.84712451	    -11.44750651	    -35.33336073	    -11.00467422	    -13.05125859	     -5.82215218	     12.12817807	     -2.20401136	    -12.96132472	    -41.12083327	     17.11952296	     -0.20558096	    -15.11864618	      9.28100024	     -2.08378925	      2.47350676	     -2.84677887	      0.28043156	      1.62638968	   -361.59459478	    -33.87202453	   -405.47201776	    145.42056479	    135.38301081	     -9.70425960	     -2.26854663	     86.95782840	     12.31765348	    -31.86420611	    -28.60780568	    147.90250109	    148.96073324	     -9.49042225	     14.71421912	     90.00021046
      1.75000000	      1.28646501	     -7.07670401	    -90.12545823	     -0.00146646	      1.35419266	      1.08728914	     16.43582281	     -7.86320643	    -11.47821295	    -35.44836988	    -11.05862396	    -13.01431708	     -5.82958387	     12.04042774	     -2.22527990	    -12.96380340	    -41.12479480	     16.97205982	     -0.14961587	    -15.13939898	      9.41314020	     -2.09782409	      2.50026644	     -3.24353964	      0.34365348	      1.59882279	   -360.81910476	    -34.10018375	   -404.98997696	    144.94743979	    135.44701435	     -9.54263122	     -2.21415997	     86.76388567	     13.21484506	    -32.05691315	    -28.02264491	    147.35032538	    148.92598396	     -9.37543399	     14.69962230	     90.00021046
      1.75250000	      1.31312802	     -7.20914545	    -90.11413447	     -0.00147280	      1.35163324	      1.08732768	     16.32888453	     -7.91800743	    -11.49587567	    -35.50892233	    -11.12995503	    -12.97220669	     -5.84761808	     11.89241145	     -2.20127504	    -12.97609562	    -41.08421697	     16.67209965	     -0.09119497	    -15.17957361	      9.55690797	     -2.17571662	      2.54780081	     -4.12024481	      0.50163143	      1.56455866	   -360.07508563	    -34.26908691	   -404.55273694	    144.43888379	    135.52232220	     -9.24260774	     -2.04549098	     86.36230659	     14.14947592	    -32.25951628	    -27.33652290	    146.83960953	    148.93271291	     -9.18979505	     14.72752903	     90.00021046
      1.75500000	      1.34064691	     -7.33959438	    -90.10261506	     -0.00146740	      1.34903199	      1.08732895	     16.23714367	     -7.97738055	    -11.52257350	    -35.60455297	    -11.19275045	    -12.94393309	     -5.87624293	     11.76064971	     -2.17454780	    -12.98332425	    -41.04894945	     16.37307033	     -0.10674388	    -15.21638576	      9.67899544	     -2.24740211	      2.60381223	     -4.68575234	      0.64385443	      1.53818005	   -359.36547481	    -34.47310878	   -404.12174673	    144.00839612	    135.60073842	     -8.82594618	     -1.79602714	     85.83064151	     15.09891637	    -32.43807944	    -26.68069794	    146.24492295	    149.01213826	     -8.92758289	     14.82162791	     90.00021046
      1.75750000	      1.31704987	     -7.43111669	    -90.10429339	     -0.00145213	      1.34630325	      1.08722401	     16.21798716	     -7.98792064	    -11.56175131	    -35.74662288	    -11.24535212	    -12.92434265	     -5.88953315	     11.69203355	     -2.20428163	    -12.98727075	    -41.06900546	     16.24265266	     -0.10634003	    -15.23015905	      9.78943717	     -2.25999430	      2.60513160	     -4.72429333	      0.67330414	      1.52558607	   -358.58736089	    -34.69335391	   -403.63890343	    143.55249216	    135.65018697	     -8.64150118	     -1.72750558	     85.68148563	     15.98415974	    -32.63879889	    -26.10351384	    145.71971369	    149.01469720	     -8.78584019	     14.81318233	     90.00021046
      1.76000000	      1.31365850	     -7.55130475	    -90.09593072	     -0.00144649	      1.34362746	      1.08720901	     16.15091353	     -8.01225944	    -11.57659957	    -35.86572355	    -11.31211671	    -12.90179572	     -5.90979235	     11.59111881	     -2.21671162	    -12.98517891	    -41.08656188	     16.01484824	     -0.09135105	    -15.25268148	      9.90276382	     -2.30570589	      2.59015912	     -5.10800892	      0.78551105	      1.52215477	   -357.77697341	    -34.89842569	   -403.10028879	    143.04683168	    135.69063333	     -8.41975736	     -1.62430644	     85.50629139	     16.88677749	    -32.85126897	    -25.46795379	    145.17279277	    149.02893504	     -8.61275204	     14.81352172	     90.00021046
      1.76250000	      1.33691133	     -7.69208522	    -90.08638672	     -0.00148333	      1.34102977	      1.08723165	     16.04372479	     -8.06126975	    -11.59092067	    -35.92883870	    -11.38411676	    -12.87912324	     -5.95061141	     11.45329523	     -2.19547183	    -12.99231352	    -41.04380554	     15.63460331	     -0.08540637	    -15.28543200	     10.00113416	     -2.39710375	      2.57216912	     -5.89238432	      0.98015862	      1.56136573	   -356.92678892	    -35.03450904	   -402.57654643	    142.50540223	    135.72906239	     -8.07879517	     -1.39904163	     85.19434427	     17.76759710	    -33.05635267	    -24.83796875	    144.71000725	    149.09710532	     -8.36359339	     14.87263256	     90.00021046
      1.76500000	      1.32289968	     -7.78118601	    -90.08030709	     -0.00145875	      1.33827884	      1.08725856	     16.00074024	     -8.07873722	    -11.62469459	    -36.04540024	    -11.43864233	    -12.85934057	     -5.97700469	     11.35781416	     -2.22146014	    -13.01085278	    -41.03094281	     15.42396339	     -0.08296616	    -15.30205757	     10.13595488	     -2.41999073	      2.54630193	     -6.05013480	      1.04521496	      1.58478950	   -356.12218460	    -35.26835783	   -402.03051890	    142.01948148	    135.77503013	     -7.85120104	     -1.28889436	     85.03198190	     18.65750331	    -33.23628403	    -24.31146182	    144.12755600	    149.12765269	     -8.18556674	     14.89955732	     90.00021046
      1.76750000	      1.31761734	     -7.89175683	    -90.07080169	     -0.00146572	      1.33554893	      1.08725422	     15.94273421	     -8.09813797	    -11.64155094	    -36.15010988	    -11.49953825	    -12.83800764	     -6.01003286	     11.26145168	     -2.24556615	    -13.03526057	    -41.02768289	     15.14272433	     -0.06507697	    -15.32464786	     10.24733061	     -2.46211553	      2.50531827	     -6.42848872	      1.15014920	      1.62029454	   -355.25233188	    -35.46517301	   -401.45769877	    141.48863121	    135.81501735	     -7.59508272	     -1.15718920	     84.86336748	     19.55220923	    -33.42693266	    -23.72776877	    143.58168851	    149.15587396	     -7.98988316	     14.92558503	     90.00021046
      1.77000000	      1.33922134	     -8.02182787	    -90.06056612	     -0.00148760	      1.33290337	      1.08734654	     15.83168968	     -8.14533584	    -11.64877711	    -36.19917039	    -11.56330804	    -12.81955488	     -6.08868359	     11.11848289	     -2.23539087	    -13.07825688	    -40.97105377	     14.64177247	     -0.06473446	    -15.35672401	     10.36209999	     -2.54308032	      2.43968524	     -7.30156538	      1.33011553	      1.74759884	   -354.32640076	    -35.59605139	   -400.85009360	    140.91847260	    135.85569261	     -7.11134276	     -0.84124277	     84.50502387	     20.40435281	    -33.61563991	    -23.21843979	    143.15554742	    149.25470428	     -7.66381547	     15.06480983	     90.00021046
      1.77250000	      1.31774206	     -8.10077984	    -90.05034317	     -0.00143480	      1.33008265	      1.08734092	     15.80717904	     -8.15432878	    -11.68800536	    -36.31197874	    -11.61706685	    -12.80108129	     -6.13314365	     11.04517624	     -2.27274773	    -13.11714155	    -40.96848540	     14.40823922	     -0.06964911	    -15.36963195	     10.48749088	     -2.54508727	      2.38687944	     -7.41065776	      1.36324666	      1.79866638	   -353.44380803	    -35.82558253	   -400.27737648	    140.43696042	    135.90641942	     -6.82521892	     -0.70838102	     84.32564531	     21.25447094	    -33.77100440	    -22.66847908	    142.59101506	    149.28010211	     -7.45175529	     15.11184124	     90.00021046
      1.77500000	      1.34059917	     -8.20853049	    -90.00719969	     -0.00116887	      1.32735660	      1.08736438	     15.73120971	     -8.23584425	    -11.75003623	    -36.37367587	    -11.66602282	    -12.79533667	     -6.59156587	     10.92879082	     -2.22591346	    -13.17166943	    -40.85182862	     13.67341599	     -0.46969078	    -15.28993780	     10.60007653	     -2.57374933	      2.05707439	     -7.95149882	      1.35913632	      2.34786785	   -352.14198805	    -35.98965488	   -399.28019305	    139.96086468	    136.23731254	     -4.84434203	      0.49502486	     82.58365809	     21.81781485	    -34.00108881	    -22.63203591	    142.41884320	    149.63401076	     -6.27570031	     15.99676797	     90.00021046
      1.77750000	      1.28896199	     -8.27884828	    -90.00410401	     -0.00110338	      1.32446850	      1.08732732	     15.71056092	     -8.21478784	    -11.77659875	    -36.45848427	    -11.71624406	    -12.76535506	     -6.62322847	     10.88967203	     -2.28949677	    -13.16814333	    -40.89480916	     13.54153851	     -0.40586104	    -15.29455655	     10.71939267	     -2.54377415	      2.03633865	     -8.09884841	      1.40937591	      2.30443575	   -351.29675929	    -36.21117027	   -398.75996061	    139.44858803	    136.32231857	     -4.71742736	      0.47512015	     82.48140613	     22.74114707	    -34.09294100	    -22.07996625	    141.82241690	    149.57961111	     -6.19191378	     15.95236538	     90.00021046
